<?xml version="1.0" encoding="iso-8859-1"?>
<!-- Generator: Adobe Illustrator 19.0.0, SVG Export Plug-In . SVG Version: 6.00 Build 0)  -->
<svg xmlns="http://www.w3.org/2000/svg" xmlns:xlink="http://www.w3.org/1999/xlink" version="1.1" id="Layer_1" x="0px" y="0px" viewBox="0 0 512.001 512.001" style="enable-background:new 0 0 512.001 512.001;" xml:space="preserve">
<path style="fill:#F5B96E;" d="M429.896,193.387h-86.012c-3.581,0-5.512-4.215-3.155-6.911  c17.294-19.786,27.772-45.681,27.762-74.027C368.469,51.253,318.788,0.86,257.599,0.011  c-62.858-0.872-114.086,49.82-114.086,112.478c0,28.324,10.472,54.2,27.752,73.975c2.361,2.702,0.444,6.923-3.144,6.923H82.969  c-28.683,0-52.68,22.732-53.159,51.412c-0.489,29.297,23.113,53.2,52.298,53.2h52.804c18.805,0,31.259,19.512,23.342,36.569  l-46.658,100.525c-13.254,28.555,0.571,62.353,30.037,73.434l0,0c26.52,9.973,56.242-2.198,68.151-27.907l34.103-73.624  c4.78-10.319,19.448-10.319,24.228,0l34.103,73.624c11.909,25.709,41.631,37.88,68.151,27.907l0,0  c29.466-11.081,43.291-44.879,30.037-73.434l-46.658-100.525c-7.917-17.057,4.538-36.569,23.342-36.569h51.943  c28.683,0,52.68-22.733,53.159-51.412C482.682,217.289,459.081,193.387,429.896,193.387z"/>
<path style="opacity:0.05;enable-background:new    ;" d="M143.513,112.489c0,28.324,10.472,54.2,27.752,73.975  c2.361,2.702,0.445,6.922-3.143,6.923h7.018c9.331,0,6.373-8.104,4.012-10.807c-17.28-19.775-27.752-45.651-27.752-73.975  c0-42.76,23.862-79.941,58.993-98.97C170.993,27.132,143.513,66.6,143.513,112.489z M149.52,504.642L149.52,504.642  c-29.466-11.081-43.291-44.879-30.037-73.434l46.658-100.525c7.917-17.057-4.538-36.569-23.342-36.569H89.994  c-29.185,0-52.787-23.903-52.298-53.2c0.311-18.65,10.573-34.777,25.596-43.781c-19.213,7.582-33.119,25.907-33.482,47.665  c-0.489,29.297,23.113,53.199,52.298,53.199h52.804c18.805,0,31.26,19.512,23.343,36.569l-46.658,100.525  c-13.254,28.555,0.571,62.353,30.037,73.434l0,0c15.981,6.01,33.12,3.968,46.828-4.222  C176.371,509.086,162.56,509.546,149.52,504.642z M378.257,504.642L378.257,504.642c-26.52,9.973-56.242-2.198-68.151-27.906  l-34.104-73.624c-5.505-12.386-24.96-15.196-32.114,3.884c4.78-10.319,19.448-10.319,24.228,0l34.103,73.624  c11.909,25.709,41.631,37.88,68.151,27.906l0,0c3.109-1.169,6.032-2.605,8.779-4.247C378.85,504.398,378.56,504.528,378.257,504.642  z"/>
<g>
	<path style="fill:#8D6A59;" d="M93.902,305.498c-2.101,0-4.189-0.877-5.673-2.59c-11.032-12.739-11.032-31.951,0-44.69   c6.184-7.141,6.184-17.909,0-25.05c-11.032-12.739-11.032-31.952,0-44.691c2.711-3.13,7.447-3.472,10.579-0.76   c3.131,2.712,3.472,7.448,0.76,10.58c-6.184,7.141-6.184,17.91,0,25.051c11.032,12.739,11.032,31.951,0,44.69   c-6.184,7.141-6.184,17.909,0,25.05c2.712,3.132,2.372,7.868-0.76,10.58C97.39,304.895,95.642,305.498,93.902,305.498z"/>
	<path style="fill:#8D6A59;" d="M421.297,305.498c-1.74,0-3.488-0.602-4.906-1.83c-3.131-2.712-3.472-7.448-0.76-10.58   c6.184-7.141,6.184-17.909,0-25.05c-11.032-12.739-11.032-31.951,0-44.69c6.184-7.141,6.184-17.91,0-25.051   c-2.712-3.132-2.372-7.868,0.76-10.58c3.13-2.71,7.867-2.372,10.579,0.76c11.032,12.739,11.032,31.952,0,44.691   c-6.184,7.141-6.184,17.909,0,25.05c11.032,12.739,11.032,31.951,0,44.69C425.486,304.62,423.397,305.498,421.297,305.498z"/>
	<path style="fill:#8D6A59;" d="M209.889,472.487c-13.423,0-26.193-7.777-31.99-20.449c-4.118-9.001-14.386-13.689-23.879-10.894   c-16.602,4.871-34.55-3.313-41.749-19.047c-1.723-3.767-0.066-8.217,3.7-9.94c3.766-1.725,8.217-0.067,9.94,3.7   c4.118,9.001,14.385,13.684,23.88,10.895c16.599-4.874,34.548,3.31,41.748,19.046c4.117,9.001,14.383,13.688,23.88,10.894   c3.976-1.17,8.142,1.108,9.31,5.082c1.167,3.975-1.108,8.143-5.082,9.311C216.416,472.033,213.133,472.487,209.889,472.487z"/>
	<path style="fill:#8D6A59;" d="M302.115,472.487c-3.245,0-6.525-0.454-9.758-1.403c-3.974-1.168-6.25-5.336-5.082-9.311   c1.167-3.975,5.337-6.251,9.31-5.082c9.496,2.789,19.762-1.894,23.879-10.894c7.2-15.734,25.148-23.922,41.749-19.046   c9.497,2.789,19.762-1.895,23.879-10.895c1.724-3.768,6.176-5.424,9.941-3.7c3.767,1.724,5.423,6.174,3.7,9.94   c-7.199,15.735-25.146,23.926-41.748,19.047c-9.497-2.788-19.763,1.893-23.88,10.894   C328.307,464.709,315.536,472.486,302.115,472.487z"/>
</g>
<g>
	<path style="fill:#394049;" d="M189.381,116.152c-4.142,0-7.5-3.357-7.5-7.5V96.939c0-4.143,3.358-7.5,7.5-7.5s7.5,3.357,7.5,7.5   v11.713C196.881,112.795,193.523,116.152,189.381,116.152z"/>
	<path style="fill:#394049;" d="M322.622,116.152c-4.142,0-7.5-3.357-7.5-7.5V96.939c0-4.143,3.358-7.5,7.5-7.5s7.5,3.357,7.5,7.5   v11.713C330.122,112.795,326.764,116.152,322.622,116.152z"/>
</g>
<g>
	<path style="fill:#E3637B;" d="M198.596,137.529h-18.429c-4.142,0-7.5-3.357-7.5-7.5c0-4.143,3.358-7.5,7.5-7.5h18.429   c4.142,0,7.5,3.357,7.5,7.5S202.738,137.529,198.596,137.529z"/>
	<path style="fill:#E3637B;" d="M331.836,137.529h-18.429c-4.142,0-7.5-3.357-7.5-7.5c0-4.143,3.358-7.5,7.5-7.5h18.429   c4.142,0,7.5,3.357,7.5,7.5C339.336,134.172,335.978,137.529,331.836,137.529z"/>
</g>
<path style="fill:#394049;" d="M266.76,126.911c-4.02,0-7.739-1.306-10.759-3.515c-3.02,2.209-6.739,3.515-10.759,3.515  c-10.068,0-18.259-8.19-18.259-18.259c0-4.143,3.358-7.5,7.5-7.5s7.5,3.357,7.5,7.5c0,1.797,1.462,3.259,3.259,3.259  s3.259-1.462,3.259-3.259c0-4.143,3.358-7.5,7.5-7.5c4.142,0,7.5,3.357,7.5,7.5c0,1.797,1.462,3.259,3.259,3.259  s3.259-1.462,3.259-3.259c0-4.143,3.358-7.5,7.5-7.5s7.5,3.357,7.5,7.5C285.02,118.721,276.828,126.911,266.76,126.911z"/>
<circle style="opacity:0.1;enable-background:new    ;" cx="252.242" cy="245.61" r="32.585"/>
<circle style="fill:#F9EFD1;" cx="256.001" cy="240.51" r="32.585"/>
<circle style="opacity:0.1;enable-background:new    ;" cx="252.242" cy="333.22" r="32.585"/>
<circle style="fill:#F9EFD1;" cx="256.001" cy="328.12" r="32.585"/>
<g style="opacity:0.1;">
	<circle cx="141.662" cy="217" r="7.378"/>
	<circle cx="192.992" cy="278.51" r="7.378"/>
	<circle cx="372.221" cy="466.13" r="7.378"/>
	<circle cx="201.712" cy="393.53" r="7.378"/>
	<circle cx="346.732" cy="246.33" r="7.378"/>
	<circle cx="310.301" cy="375.04" r="7.378"/>
	<circle cx="327.732" cy="326.74" r="7.378"/>
	<circle cx="225.182" cy="47.04" r="7.378"/>
	<circle cx="219.212" cy="181.9" r="7.378"/>
	<circle cx="149.042" cy="464.81" r="7.378"/>
	<circle cx="292.792" cy="64.878" r="7.378"/>
</g>
<g>
</g>
<g>
</g>
<g>
</g>
<g>
</g>
<g>
</g>
<g>
</g>
<g>
</g>
<g>
</g>
<g>
</g>
<g>
</g>
<g>
</g>
<g>
</g>
<g>
</g>
<g>
</g>
<g>
</g>
</svg>
