<?xml version="1.0" encoding="iso-8859-1"?>
<!-- Generator: Adobe Illustrator 19.0.0, SVG Export Plug-In . SVG Version: 6.00 Build 0)  -->
<svg xmlns="http://www.w3.org/2000/svg" xmlns:xlink="http://www.w3.org/1999/xlink" version="1.1" id="Layer_1" x="0px" y="0px" viewBox="0 0 512 512" style="enable-background:new 0 0 512 512;" xml:space="preserve">
<circle style="fill:#8D6A59;" cx="256" cy="267.43" r="244.57"/>
<path style="opacity:0.1;enable-background:new    ;" d="M270.531,497.469c-135.071,0-244.568-109.497-244.568-244.568  c0-18.273,2.013-36.074,5.815-53.201c8.066,7.266,18.727,11.706,30.439,11.706c25.155,0,45.547-20.392,45.547-45.547  c0-24.233-18.926-44.037-42.802-45.457c7.576-11.728,16.116-22.776,25.529-33.01C41.894,132.09,11.432,196.2,11.432,267.432  C11.432,402.503,120.929,512,256,512c71.232,0,135.342-30.462,180.04-79.059C392.487,473,334.37,497.469,270.531,497.469z"/>
<path style="opacity:0.1;enable-background:new    ;" d="M199.558,29.421c-27.2,6.426-52.65,17.384-75.495,32.049  c-0.035,0.73-0.056,1.465-0.056,2.204c0,25.155,20.392,45.547,45.547,45.547s45.547-20.392,45.547-45.547  C215.101,50.015,209.081,37.769,199.558,29.421z"/>
<circle style="opacity:0.1;enable-background:new    ;" cx="191.69" cy="197.34" r="45.547"/>
<circle style="opacity:0.1;enable-background:new    ;" cx="314.55" cy="57.12" r="45.547"/>
<circle style="opacity:0.1;enable-background:new    ;" cx="329.38" cy="226.11" r="45.547"/>
<circle style="opacity:0.1;enable-background:new    ;" cx="422.68" cy="137.61" r="45.547"/>
<circle style="fill:#E3637B;" cx="68.53" cy="154.29" r="45.547"/>
<circle style="fill:#20AB6C;" cx="175.87" cy="52.1" r="45.547"/>
<circle style="fill:#F5B96E;" cx="198" cy="185.77" r="45.547"/>
<circle style="fill:#E3637B;" cx="320.87" cy="45.547" r="45.547"/>
<circle style="fill:#F9EFD1;" cx="335.69" cy="214.54" r="45.547"/>
<circle style="fill:#F5B96E;" cx="429" cy="126.04" r="45.547"/>
<path style="fill:#E3637B;" d="M273.675,349.391c-9.762,0-17.675-7.913-17.675-17.675c0,9.762-7.913,17.675-17.675,17.675  c-5.283,0-10.011-2.33-13.25-6.005v26.265c0,17.079,13.846,30.925,30.925,30.925s30.925-13.846,30.925-30.925v-26.265  C283.686,347.061,278.958,349.391,273.675,349.391z"/>
<path style="fill:#FFFFFF;" d="M256,373.323c-10.928,0-20.896,3.182-28.474,8.413c4.706,11.074,15.682,18.841,28.474,18.841  s23.768-7.766,28.474-18.841C276.896,376.505,266.928,373.323,256,373.323z"/>
<g>
	<path style="fill:#394049;" d="M164.559,338.598c-4.143,0-7.5-3.357-7.5-7.5c0-5.792-4.713-10.505-10.505-10.505   s-10.505,4.713-10.505,10.505c0,4.143-3.357,7.5-7.5,7.5c-4.142,0-7.5-3.357-7.5-7.5c0-14.063,11.441-25.505,25.505-25.505   c14.064,0,25.505,11.441,25.505,25.505C172.059,335.24,168.701,338.598,164.559,338.598z"/>
	<path style="fill:#394049;" d="M383.451,338.598c-4.143,0-7.5-3.357-7.5-7.5c0-5.792-4.713-10.505-10.505-10.505   s-10.505,4.713-10.505,10.505c0,4.143-3.357,7.5-7.5,7.5s-7.5-3.357-7.5-7.5c0-14.063,11.441-25.505,25.505-25.505   s25.505,11.441,25.505,25.505C390.951,335.24,387.594,338.598,383.451,338.598z"/>
</g>
<g>
	<path style="fill:#E8A8C2;" d="M161.691,374.336h-30.275c-4.143,0-7.5-3.357-7.5-7.5s3.357-7.5,7.5-7.5h30.275   c4.143,0,7.5,3.357,7.5,7.5C169.191,370.978,165.834,374.336,161.691,374.336z"/>
	<path style="fill:#E8A8C2;" d="M380.584,374.336h-30.275c-4.143,0-7.5-3.357-7.5-7.5s3.357-7.5,7.5-7.5h30.275   c4.143,0,7.5,3.357,7.5,7.5C388.084,370.978,384.727,374.336,380.584,374.336z"/>
</g>
<path style="fill:#394049;" d="M273.675,356.891c-6.881,0-13.126-2.775-17.675-7.265c-4.549,4.489-10.794,7.265-17.675,7.265  c-13.882,0-25.175-11.293-25.175-25.175c0-4.143,3.357-7.5,7.5-7.5s7.5,3.357,7.5,7.5c0,5.61,4.564,10.175,10.175,10.175  c5.61,0,10.175-4.564,10.175-10.175c0-4.143,3.357-7.5,7.5-7.5c4.143,0,7.5,3.357,7.5,7.5c0,5.61,4.565,10.175,10.175,10.175  s10.175-4.564,10.175-10.175c0-4.143,3.357-7.5,7.5-7.5s7.5,3.357,7.5,7.5C298.85,345.598,287.557,356.891,273.675,356.891z"/>
<g>
</g>
<g>
</g>
<g>
</g>
<g>
</g>
<g>
</g>
<g>
</g>
<g>
</g>
<g>
</g>
<g>
</g>
<g>
</g>
<g>
</g>
<g>
</g>
<g>
</g>
<g>
</g>
<g>
</g>
</svg>
