<?xml version="1.0" encoding="iso-8859-1"?>
<!-- Generator: Adobe Illustrator 19.0.0, SVG Export Plug-In . SVG Version: 6.00 Build 0)  -->
<svg xmlns="http://www.w3.org/2000/svg" xmlns:xlink="http://www.w3.org/1999/xlink" version="1.1" id="Layer_1" x="0px" y="0px" viewBox="0 0 512 512" style="enable-background:new 0 0 512 512;" xml:space="preserve">
<path style="fill:#F5B96E;" d="M496.532,178.241L496.532,178.241c-9.902-9.904-15.465-23.334-15.466-37.339l0,0  c-0.002-21.359-12.868-40.614-32.6-48.79l0,0c-13.012-5.391-23.335-15.758-28.67-28.8c-8.093-19.788-27.76-32.378-49.139-32.378  h-0.085c-13.936,0-27.086-5.832-36.987-15.639C318.481,0.332,295.866-4.12,276.208,4.02l0,0c-12.939,5.358-27.476,5.358-40.415,0  l0,0c-19.658-8.14-42.273-3.688-57.378,11.275c-9.9,9.808-23.051,15.639-36.986,15.639h-0.085c-21.379,0-41.046,12.59-49.14,32.378  c-5.334,13.043-15.657,23.409-28.669,28.8l0,0c-19.732,8.176-32.598,27.431-32.601,48.79l0,0  c-0.001,14.004-5.564,27.435-15.466,37.339l0,0C0.366,193.345-4.152,216.059,4.02,235.792l0,0c5.358,12.939,5.358,27.476,0,40.415  l0,0c-8.172,19.734-3.654,42.447,11.448,57.552l0,0c9.902,9.904,15.465,23.334,15.466,37.339l0,0  c0.002,21.359,12.868,40.614,32.601,48.79l0,0c13.012,5.391,23.335,15.758,28.669,28.8c8.093,19.788,27.76,32.378,49.14,32.378  h0.085c13.936,0,27.086,5.832,36.986,15.639c15.105,14.963,37.72,19.415,57.378,11.275l0,0c12.939-5.358,27.476-5.358,40.415,0l0,0  c19.658,8.14,42.273,3.688,57.378-11.275c9.901-9.808,23.051-15.639,36.987-15.639h0.681c21.465,0,40.423-13.191,48.785-32.96  c1.237-2.923,2.725-5.709,4.439-8.33c3.502-5.355,2.899-12.399-1.625-16.923L256,256h235.967c6.282,0,11.801-4.357,13.051-10.513  c0.669-3.296,1.656-6.542,2.962-9.694l0,0C516.152,216.059,511.634,193.345,496.532,178.241z"/>
<path style="opacity:0.15;enable-background:new    ;" d="M496.532,178.241L496.532,178.241  c-9.902-9.904-15.465-23.334-15.466-37.339l0,0c-0.002-21.359-12.868-40.614-32.6-48.79l0,0c-13.012-5.391-23.335-15.758-28.67-28.8  c-8.093-19.788-27.76-32.378-49.139-32.378h-0.085c-13.936,0-27.086-5.832-36.987-15.639C318.481,0.332,295.866-4.12,276.208,4.02  l0,0c-12.939,5.358-27.476,5.358-40.415,0l0,0c-19.658-8.14-42.273-3.688-57.378,11.275c-9.9,9.808-23.051,15.639-36.986,15.639  h-0.085c-21.379,0-41.046,12.59-49.14,32.378c-5.334,13.043-15.657,23.409-28.669,28.8l0,0  c-19.732,8.176-32.598,27.431-32.601,48.79l0,0c-0.001,14.004-5.564,27.435-15.466,37.339l0,0  C0.366,193.345-4.152,216.059,4.02,235.792l0,0c5.358,12.939,5.358,27.476,0,40.415l0,0c-8.172,19.734-3.654,42.447,11.448,57.552  l0,0c9.902,9.904,15.465,23.334,15.466,37.339l0,0c0.002,21.359,12.868,40.614,32.601,48.79l0,0  c13.012,5.391,23.335,15.758,28.669,28.8c8.093,19.788,27.76,32.378,49.14,32.378h0.085c13.936,0,27.086,5.832,36.986,15.639  c15.105,14.963,37.72,19.415,57.378,11.275l0,0c12.939-5.358,27.476-5.358,40.415,0l0,0c19.658,8.14,42.273,3.688,57.378-11.275  c9.901-9.808,23.051-15.639,36.987-15.639h0.681c21.465,0,40.423-13.191,48.785-32.96c1.237-2.923,2.725-5.709,4.439-8.33  c3.502-5.355,2.899-12.399-1.625-16.923L256,256h235.967c6.282,0,11.801-4.357,13.051-10.513c0.669-3.296,1.656-6.542,2.962-9.694  l0,0C516.152,216.059,511.634,193.345,496.532,178.241z"/>
<path style="opacity:0.1;enable-background:new    ;" d="M102.003,53.512c1.719-4.204,3.965-8.079,6.635-11.581  c-7.142,5.45-12.895,12.727-16.435,21.381c-1.79,4.376-4.152,8.44-6.978,12.127C92.597,69.792,98.426,62.259,102.003,53.512z   M381.052,471.267h-0.681c-13.936,0-27.086,5.832-36.987,15.639c-15.105,14.963-37.72,19.415-57.378,11.275  c-12.939-5.358-27.476-5.358-40.415,0l0,0c-19.658,8.14-42.273,3.688-57.378-11.275c-9.9-9.808-23.05-15.639-36.986-15.639h-0.085  c-21.379,0-41.046-12.59-49.139-32.378c-5.335-13.042-15.657-23.409-28.67-28.8l0,0c-19.732-8.176-32.598-27.431-32.601-48.79l0,0  c-0.001-14.004-5.564-27.435-15.466-37.339l0,0c-15.102-15.105-19.619-37.818-11.448-57.552l0,0c5.358-12.939,5.358-27.476,0-40.415  l0,0c-8.172-19.734-3.654-42.447,11.448-57.552l0,0c9.902-9.904,15.465-23.334,15.466-37.339l0,0  c0.001-11.88,3.986-23.105,10.915-32.139c-12.853,9.838-20.712,25.246-20.714,41.939l0,0c-0.001,14.004-5.564,27.435-15.466,37.339  l0,0C0.366,193.345-4.152,216.059,4.02,235.792l0,0c5.358,12.939,5.358,27.476,0,40.415l0,0  c-8.172,19.734-3.654,42.447,11.448,57.552l0,0c9.902,9.904,15.465,23.334,15.466,37.339l0,0  c0.002,21.359,12.868,40.614,32.601,48.79l0,0c13.012,5.391,23.335,15.758,28.669,28.8c8.093,19.788,27.76,32.378,49.14,32.378  h0.085c13.936,0,27.086,5.832,36.986,15.639c15.105,14.963,37.719,19.415,57.378,11.275l0,0c12.939-5.358,27.476-5.358,40.415,0l0,0  c19.658,8.14,42.273,3.688,57.378-11.275c9.901-9.808,23.051-15.639,36.987-15.639h0.681c16.64,0,31.77-7.932,41.629-20.706  C403.932,467.258,392.875,471.267,381.052,471.267z"/>
<path style="fill:#F5B96E;" d="M465.222,256c0-115.55-93.672-209.222-209.222-209.222S46.778,140.45,46.778,256  S140.45,465.222,256,465.222c57.775,0,110.08-23.418,147.942-61.28L256,256H465.222z"/>
<g>
	<path style="fill:#E3637B;" d="M165.263,354.237c-1.919,0-3.839-0.732-5.304-2.197c-2.929-2.929-2.929-7.678,0-10.606   l33.722-33.722c2.93-2.929,7.678-2.929,10.607,0s2.929,7.678,0,10.606l-33.722,33.722   C169.102,353.505,167.182,354.237,165.263,354.237z"/>
	<path style="fill:#E3637B;" d="M185.505,374.48c-1.919,0-3.839-0.732-5.304-2.197c-2.929-2.929-2.929-7.678,0-10.606l33.722-33.722   c2.93-2.929,7.678-2.929,10.607,0s2.929,7.678,0,10.606l-33.722,33.722C189.344,373.748,187.424,374.48,185.505,374.48z"/>
	<path style="fill:#E3637B;" d="M313.016,206.484c-1.919,0-3.839-0.732-5.304-2.197c-2.929-2.929-2.929-7.678,0-10.606   l33.722-33.722c2.93-2.929,7.678-2.929,10.607,0s2.929,7.678,0,10.606l-33.722,33.722   C316.855,205.752,314.935,206.484,313.016,206.484z"/>
	<path style="fill:#E3637B;" d="M333.259,226.727c-1.919,0-3.839-0.732-5.303-2.197c-2.93-2.929-2.93-7.677-0.001-10.607   l33.721-33.722c2.93-2.929,7.679-2.93,10.606,0c2.93,2.929,2.93,7.677,0.001,10.607l-33.721,33.722   C337.098,225.995,335.178,226.727,333.259,226.727z"/>
</g>
<g>
	<path style="fill:#394049;" d="M115.69,259.181c-1.92,0-3.839-0.732-5.304-2.197l-11.37-11.371   c-2.929-2.929-2.929-7.678,0.001-10.606c2.929-2.93,7.678-2.929,10.606,0l11.37,11.371c2.929,2.929,2.929,7.678-0.001,10.607   C119.529,258.448,117.609,259.181,115.69,259.181z"/>
	<path style="fill:#394049;" d="M245.045,129.826c-1.92,0-3.839-0.732-5.304-2.197l-11.37-11.371   c-2.929-2.929-2.929-7.678,0.001-10.606c2.928-2.929,7.677-2.929,10.606,0l11.37,11.371c2.929,2.929,2.929,7.678-0.001,10.606   C248.884,129.093,246.964,129.826,245.045,129.826z"/>
</g>
<g>
	<path style="fill:#FFFFFF;" d="M127.499,288.88c-1.92,0-3.839-0.732-5.304-2.197c-2.929-2.929-2.929-7.678,0-10.606l17.892-17.891   c2.93-2.93,7.678-2.929,10.607,0s2.929,7.678,0,10.606l-17.892,17.891C131.338,288.147,129.418,288.88,127.499,288.88z"/>
	<path style="fill:#FFFFFF;" d="M256.854,159.525c-1.92,0-3.839-0.732-5.304-2.197c-2.929-2.929-2.929-7.678,0-10.606l17.892-17.891   c2.931-2.929,7.679-2.929,10.607,0c2.929,2.929,2.929,7.678,0,10.606l-17.892,17.891   C260.692,158.793,258.773,159.525,256.854,159.525z"/>
</g>
<path style="fill:#394049;" d="M169.923,219.709c-5.703,0-11.406-2.171-15.749-6.513c-2.929-2.929-2.929-7.678,0-10.607  c2.93-2.929,7.678-2.929,10.607,0c2.834,2.835,7.449,2.835,10.283,0c1.374-1.373,2.13-3.2,2.13-5.142s-0.756-3.768-2.13-5.142  c-1.464-1.464-2.196-3.384-2.196-5.303c0-1.919,0.732-3.839,2.196-5.303c2.93-2.929,7.678-2.929,10.607,0  c2.834,2.835,7.448,2.835,10.282,0c2.836-2.835,2.835-7.448,0-10.284c-2.929-2.929-2.929-7.678,0.001-10.607  c2.929-2.928,7.678-2.928,10.606,0.001c8.683,8.684,8.683,22.813,0,31.497c-4.004,4.004-9.165,6.162-14.417,6.473  c-0.311,5.252-2.47,10.414-6.473,14.417C181.329,217.538,175.626,219.709,169.923,219.709z"/>
<g>
</g>
<g>
</g>
<g>
</g>
<g>
</g>
<g>
</g>
<g>
</g>
<g>
</g>
<g>
</g>
<g>
</g>
<g>
</g>
<g>
</g>
<g>
</g>
<g>
</g>
<g>
</g>
<g>
</g>
</svg>
