<?xml version="1.0" encoding="iso-8859-1"?>
<!-- Generator: Adobe Illustrator 19.0.0, SVG Export Plug-In . SVG Version: 6.00 Build 0)  -->
<svg xmlns="http://www.w3.org/2000/svg" xmlns:xlink="http://www.w3.org/1999/xlink" version="1.1" id="Layer_1" x="0px" y="0px" viewBox="0 0 512 512" style="enable-background:new 0 0 512 512;" xml:space="preserve">
<path style="fill:#F5B96E;" d="M457.963,289.685c0-111.541-90.422-201.963-201.963-201.963S54.037,178.144,54.037,289.685  S144.459,407.246,256,407.246S457.963,401.227,457.963,289.685z"/>
<path style="opacity:0.05;enable-background:new    ;" d="M256,87.723c-41.887,0-80.794,12.753-113.054,34.585  c53.414,45.643,128.52,60.194,196.666,34.831l0,0c15.747-5.861,28.268-16.572,36.531-29.8C342.567,102.45,301.005,87.723,256,87.723  z"/>
<path style="fill:#9D7BC6;" d="M449.855,277.473H62.145c-11.522,0-19.642,11.309-15.959,22.227l64.146,190.147  C114.799,503.086,127.214,512,141.186,512h229.628c13.973,0,26.387-8.914,30.854-22.154l64.146-190.147  C469.497,288.782,461.376,277.473,449.855,277.473z"/>
<g>
	<circle style="fill:#F9EFD1;" cx="141.87" cy="352.02" r="42.719"/>
	<circle style="fill:#F9EFD1;" cx="265.56" cy="443.15" r="42.719"/>
	<circle style="fill:#F9EFD1;" cx="376.14" cy="349.76" r="42.719"/>
</g>
<path style="opacity:0.2;enable-background:new    ;" d="M130.949,277.473L174.532,512h15.256l-43.583-234.527L130.949,277.473  L130.949,277.473z M365.795,277.473L322.212,512h15.256l43.583-234.527L365.795,277.473L365.795,277.473z M248.5,512h15V277.473h-15  V512z"/>
<path style="fill:#F9EFD1;" d="M339.612,141.912L339.612,141.912c37.912-14.11,57.207-56.282,43.097-94.194l0,0  C368.6,9.805,326.427-9.49,288.515,4.62l-15.899,5.917c-53.713,19.991-112.453,22.061-167.44,5.9l0,0  c-14.097-4.143-25.495,11.844-16.982,23.82l22.148,31.161C162.001,144.1,256.042,173.015,339.612,141.912z"/>
<path style="fill:#20AB6C;" d="M178.106,92.961c-1.583,0-3.179-0.499-4.536-1.532l-21.847-16.623  c-3.296-2.508-3.936-7.214-1.427-10.51c2.509-3.297,7.216-3.935,10.51-1.427l21.847,16.623c3.296,2.508,3.936,7.214,1.427,10.51  C182.605,91.942,180.369,92.961,178.106,92.961z"/>
<path style="fill:#9D7BC6;" d="M314.209,61.313c-1.583,0-3.179-0.499-4.536-1.532c-3.296-2.508-3.936-7.214-1.427-10.51  l16.622-21.846c2.509-3.297,7.215-3.935,10.51-1.427c3.296,2.508,3.936,7.214,1.427,10.51l-16.622,21.846  C318.707,60.294,316.471,61.313,314.209,61.313z"/>
<g>
	<path style="fill:#20AB6C;" d="M283.523,127.87c-3.19,0-6.149-2.052-7.154-5.257c-1.24-3.952,0.959-8.162,4.911-9.401l26.192-8.217   c3.953-1.238,8.162,0.959,9.401,4.911c1.24,3.952-0.959,8.162-4.911,9.401l-26.192,8.217   C285.023,127.759,284.267,127.87,283.523,127.87z"/>
	<path style="fill:#20AB6C;" d="M269.326,60.379c-0.6,0-1.208-0.072-1.816-0.224l-26.64-6.625c-4.02-1-6.468-5.069-5.468-9.088   s5.07-6.468,9.088-5.468l26.64,6.625c4.02,1,6.468,5.069,5.468,9.088C275.749,58.099,272.689,60.379,269.326,60.379z"/>
</g>
<path style="fill:#9D7BC6;" d="M223.913,104.441c-2.802,0-5.49-1.578-6.776-4.276c-1.782-3.739-0.195-8.215,3.544-9.996  l24.781-11.808c3.739-1.782,8.215-0.195,9.997,3.544c1.782,3.739,0.195,8.215-3.544,9.997l-24.781,11.808  C226.093,104.206,224.994,104.441,223.913,104.441z"/>
<g>
	<path style="fill:#394049;" d="M173.121,207.467c-4.142,0-7.5-3.358-7.5-7.5v-14.571c0-4.142,3.358-7.5,7.5-7.5s7.5,3.358,7.5,7.5   v14.571C180.621,204.109,177.263,207.467,173.121,207.467z"/>
	<path style="fill:#394049;" d="M338.879,207.467c-4.142,0-7.5-3.358-7.5-7.5v-14.571c0-4.142,3.358-7.5,7.5-7.5s7.5,3.358,7.5,7.5   v14.571C346.379,204.109,343.021,207.467,338.879,207.467z"/>
</g>
<g>
	<path style="fill:#E3637B;" d="M184.584,234.062h-22.926c-4.142,0-7.5-3.358-7.5-7.5s3.358-7.5,7.5-7.5h22.926   c4.142,0,7.5,3.358,7.5,7.5S188.726,234.062,184.584,234.062z"/>
	<path style="fill:#E3637B;" d="M350.342,234.062h-22.926c-4.142,0-7.5-3.358-7.5-7.5s3.358-7.5,7.5-7.5h22.926   c4.142,0,7.5,3.358,7.5,7.5S354.484,234.062,350.342,234.062z"/>
</g>
<path style="fill:#394049;" d="M269.385,220.852c-5.089,0-9.758-1.829-13.385-4.865c-3.627,3.036-8.296,4.865-13.385,4.865  c-11.516,0-20.884-9.369-20.884-20.884c0-4.142,3.358-7.5,7.5-7.5s7.5,3.358,7.5,7.5c0,3.245,2.64,5.884,5.884,5.884  c3.245,0,5.885-2.64,5.885-5.884c0-4.142,3.358-7.5,7.5-7.5c4.142,0,7.5,3.358,7.5,7.5c0,3.245,2.64,5.884,5.885,5.884  s5.884-2.64,5.884-5.884c0-4.142,3.358-7.5,7.5-7.5s7.5,3.358,7.5,7.5C290.269,211.483,280.9,220.852,269.385,220.852z"/>
<g>
</g>
<g>
</g>
<g>
</g>
<g>
</g>
<g>
</g>
<g>
</g>
<g>
</g>
<g>
</g>
<g>
</g>
<g>
</g>
<g>
</g>
<g>
</g>
<g>
</g>
<g>
</g>
<g>
</g>
</svg>
