<?xml version="1.0" encoding="iso-8859-1"?>
<!-- Generator: Adobe Illustrator 19.0.0, SVG Export Plug-In . SVG Version: 6.00 Build 0)  -->
<svg xmlns="http://www.w3.org/2000/svg" xmlns:xlink="http://www.w3.org/1999/xlink" version="1.1" id="Layer_1" x="0px" y="0px" viewBox="0 0 512 512" style="enable-background:new 0 0 512 512;" xml:space="preserve">
<path style="fill:#F9EFD1;" d="M486.452,509.439H25.548C11.438,509.439,0,498,0,483.891V179.947  c0-14.11,11.438-25.548,25.548-25.548h460.904c14.11,0,25.548,11.438,25.548,25.548v303.944  C512,498,500.562,509.439,486.452,509.439z"/>
<path style="opacity:0.07;enable-background:new    ;" d="M256,509.439H25.548C11.438,509.439,0,498,0,483.891V179.947  c0-14.11,11.438-25.548,25.548-25.548H256V509.439z"/>
<path style="fill:#E3637B;" d="M256,238.016H38.747c-4.659,0-8.436-3.777-8.436-8.436v-40.667c0-4.659,3.777-8.436,8.436-8.436H256  V238.016z"/>
<path style="fill:#9D7BC6;" d="M256,319.798H38.747c-4.659,0-8.436-3.777-8.436-8.436v-40.667c0-4.659,3.777-8.436,8.436-8.436H256  V319.798z"/>
<path style="fill:#20AB6C;" d="M256,401.579H38.747c-4.659,0-8.436-3.777-8.436-8.436v-40.667c0-4.659,3.777-8.436,8.436-8.436H256  V401.579z"/>
<path style="fill:#8D6A59;" d="M256,483.361H38.747c-4.659,0-8.436-3.777-8.436-8.436v-40.667c0-4.659,3.777-8.436,8.436-8.436H256  V483.361z"/>
<g>
	<path style="fill:#394049;" d="M299.235,324.316c-4.143,0-7.5-3.358-7.5-7.5v-14.902c0-4.142,3.357-7.5,7.5-7.5   c4.142,0,7.5,3.358,7.5,7.5v14.902C306.735,320.958,303.378,324.316,299.235,324.316z"/>
	<path style="fill:#394049;" d="M468.765,324.316c-4.142,0-7.5-3.358-7.5-7.5v-14.902c0-4.142,3.358-7.5,7.5-7.5   c4.143,0,7.5,3.358,7.5,7.5v14.902C476.265,320.958,472.907,324.316,468.765,324.316z"/>
</g>
<g>
	<path style="fill:#E8A8C2;" d="M310.959,351.516h-23.447c-4.143,0-7.5-3.358-7.5-7.5s3.357-7.5,7.5-7.5h23.447   c4.143,0,7.5,3.358,7.5,7.5S315.102,351.516,310.959,351.516z"/>
	<path style="fill:#E8A8C2;" d="M480.488,351.516h-23.447c-4.143,0-7.5-3.358-7.5-7.5s3.357-7.5,7.5-7.5h23.447   c4.143,0,7.5,3.358,7.5,7.5S484.631,351.516,480.488,351.516z"/>
</g>
<path style="fill:#394049;" d="M397.69,338.005c-5.214,0-9.994-1.893-13.69-5.028c-3.695,3.135-8.476,5.028-13.69,5.028  c-11.683,0-21.188-9.505-21.188-21.189c0-4.142,3.357-7.5,7.5-7.5c4.142,0,7.5,3.358,7.5,7.5c0,3.413,2.776,6.189,6.188,6.189  c3.413,0,6.19-2.776,6.19-6.189c0-4.142,3.357-7.5,7.5-7.5s7.5,3.358,7.5,7.5c0,3.413,2.776,6.189,6.19,6.189  c3.412,0,6.188-2.776,6.188-6.189c0-4.142,3.358-7.5,7.5-7.5c4.143,0,7.5,3.358,7.5,7.5  C418.878,328.5,409.373,338.005,397.69,338.005z"/>
<path style="fill:#E3637B;" d="M132.658,70.621h-27.683c-3.28,0-5.938,2.659-5.938,5.938v77.839h39.56V76.56  C138.596,73.28,135.938,70.621,132.658,70.621z"/>
<path style="fill:#F5B96E;" d="M143.128,44.711c0.024-18.734-14.17-18.503-19.883-39.517c-0.76-2.796-4.369-3.568-6.201-1.324  c-13.161,16.116-21.642,28.149-22.469,39.7c-0.968,13.531,8.926,25.995,22.455,26.986C131.783,71.636,143.11,59.216,143.128,44.711z  "/>
<path style="fill:#F9EFD1;" d="M138.26,74.669l-39.224,39.224v35.942l39.56-39.56V76.56  C138.596,75.895,138.462,75.266,138.26,74.669z"/>
<rect x="99.04" y="141.28" style="opacity:0.1;enable-background:new    ;" width="39.56" height="13.12"/>
<path style="fill:#20AB6C;" d="M269.839,70.621h-27.683c-3.28,0-5.939,2.659-5.939,5.938v77.839h39.56V76.56  C275.777,73.28,273.118,70.621,269.839,70.621z"/>
<path style="fill:#F5B96E;" d="M280.309,44.711c0.024-18.734-14.17-18.503-19.883-39.517c-0.76-2.796-4.369-3.568-6.201-1.324  c-13.161,16.116-21.642,28.149-22.469,39.7c-0.968,13.531,8.926,25.995,22.455,26.986C268.964,71.636,280.29,59.216,280.309,44.711z  "/>
<path style="fill:#F9EFD1;" d="M275.441,74.669l-39.224,39.224v35.942l39.56-39.56V76.56  C275.777,75.895,275.643,75.266,275.441,74.669z"/>
<rect x="236.22" y="141.28" style="opacity:0.1;enable-background:new    ;" width="39.56" height="13.12"/>
<path style="fill:#9D7BC6;" d="M407.019,70.621h-27.683c-3.28,0-5.939,2.659-5.939,5.938v77.839h39.56V76.56  C412.958,73.28,410.299,70.621,407.019,70.621z"/>
<path style="fill:#F5B96E;" d="M417.49,44.711c0.024-18.734-14.17-18.503-19.883-39.517c-0.76-2.796-4.369-3.568-6.201-1.324  c-13.16,16.116-21.642,28.149-22.469,39.7c-0.968,13.531,8.926,25.995,22.455,26.986C406.144,71.636,417.471,59.216,417.49,44.711z"/>
<path style="fill:#F9EFD1;" d="M412.622,74.669l-39.224,39.224v35.942l39.56-39.56V76.56  C412.958,75.895,412.823,75.266,412.622,74.669z"/>
<rect x="373.4" y="141.28" style="opacity:0.1;enable-background:new    ;" width="39.56" height="13.12"/>
<g>
</g>
<g>
</g>
<g>
</g>
<g>
</g>
<g>
</g>
<g>
</g>
<g>
</g>
<g>
</g>
<g>
</g>
<g>
</g>
<g>
</g>
<g>
</g>
<g>
</g>
<g>
</g>
<g>
</g>
</svg>
